<svg class="dark-svg" viewBox="0 0 612 344" version="1.1" xmlns="http://www.w3.org/2000/svg" xmlns:xlink="http://www.w3.org/1999/xlink">
        <g stroke="none" stroke-width="1">
          <g fill-rule="nonzero" fill="#000000">
            <path d="M604.267,55.727 C608.524,55.727 612,52.083 612,47.994 L612,7.825 C612,3.569 608.717,0.092 604.267,0.092 L7.733,0.092 C3.477,0.092 0,3.736 0,7.825 L0,47.994 C0,52.25 3.283,55.727 7.733,55.727 L604.267,55.727 L604.267,55.727 Z" id="Shape"></path>
              <path d="M0,187.084 C0,191.34 3.283,194.817 7.733,194.817 L604.266,194.817 C608.522,194.817 611.999,191.172 611.999,187.084 L611.999,146.915 C611.999,142.631 608.716,139.182 604.266,139.182 L7.733,139.182 C3.477,139.182 0,142.827 0,146.915 L0,187.084 Z" id="Shape"></path>
              <path d="M0,326.175 C0,330.431 3.283,333.908 7.733,333.908 L604.266,333.908 C608.522,333.908 611.999,330.263 611.999,326.175 L611.999,286.006 C611.999,281.75 608.716,278.274 604.266,278.274 L7.733,278.274 C3.477,278.274 0,281.918 0,286.006 L0,326.175 Z" id="Shape"></path>
          </g>
        </g>
      </svg>