<svg width="400" height="97" viewBox="0 0 400 97" fill="none" xmlns="http://www.w3.org/2000/svg">
                            <path d="M48.7199 2.66991C44.4551 -0.00461304 37.581 -0.369133 29.4598 1.67464C28.4924 1.88352 27.5826 2.14565 26.6196 2.46102C26.6729 2.25214 26.7305 2.04326 26.7882 1.83028C26.9036 1.30602 26.5042 0.781769 25.9362 0.626131C25.3681 0.519642 24.7424 0.888258 24.627 1.41251C24.5161 1.99001 24.343 2.61666 24.1744 3.30065C18.494 5.34442 13.0399 8.28107 8.77962 11.742C0.711692 18.2419 -1.95987 25.4791 1.44837 31.721C1.6747 32.192 2.35812 32.4009 2.86847 32.1388C3.4365 31.9299 3.66283 31.2991 3.37881 30.7749C1.6747 27.6826 0.31229 21.2318 10.1997 13.2615C13.892 10.2757 18.6049 7.65033 23.5486 5.71304C22.2439 10.9556 20.3667 18.0863 18.2677 26.0033C14.9704 38.3807 11.2781 52.3799 8.60655 63.336C7.12876 69.369 6.10806 73.8252 5.54002 77.024C4.57258 82.373 4.80335 83.4215 5.93943 83.786C6.05037 83.8393 6.22345 83.8393 6.39208 83.8393C7.41278 83.8393 8.21158 82.5819 9.5163 79.8541C9.80032 79.3831 9.5163 78.7524 9.00595 78.5435C8.43791 78.3346 7.75449 78.5435 7.52816 79.0677C7.47047 79.2275 7.35953 79.3831 7.30183 79.4896C8.21158 73.4033 11.8461 58.9863 15.5961 44.6717C16.9585 47.3462 19.5147 48.9722 22.8697 49.1811C23.096 49.1811 23.38 49.1811 23.6063 49.1811C27.9243 49.1811 33.0367 46.8752 37.6964 42.7836C43.3191 37.8564 48.0941 30.6192 51.5024 21.8093C55.989 10.2757 52.4698 5.02905 48.7199 2.66991ZM49.4565 21.1294C45.3116 31.8234 39.9685 38.012 36.1609 41.3665C31.6743 45.2984 26.9036 47.3995 23.0383 47.1374C19.7987 46.9776 17.6419 45.1427 16.9585 41.9972C16.8476 41.7351 16.6745 41.5262 16.4482 41.3665C17.8106 36.1772 19.173 31.0902 20.3667 26.4743C22.6389 17.8241 24.6847 10.1692 26.0516 4.76692C27.3563 4.34916 28.7187 3.9273 30.0278 3.61602C37.47 1.78113 43.8338 2.04326 47.5261 4.34916C53.0911 7.8633 51.671 15.4118 49.4565 21.1294Z" fill="#D4AF37"/>
                            <path d="M66.1018 41.944C65.5914 41.6287 64.908 41.7352 64.5707 42.2062C60.306 47.7109 56.8401 51.1718 53.4318 53.4285C51.7277 54.5303 50.0813 54.7391 49.0029 54.006C48.3195 53.5309 46.216 51.4339 48.6612 44.0943C54.173 39.9003 57.1818 35.9151 56.3874 33.8181C56.1034 33.1874 55.42 32.7696 54.6833 32.7696C52.4112 32.8228 48.9452 36.4394 46.6731 43.2014C43.8861 51.5404 46.1627 54.5794 47.7515 55.6279C48.5458 56.2054 49.4556 56.4675 50.4807 56.4675C51.7854 56.4675 53.2632 55.9965 54.6833 55.0545C58.3179 52.6421 61.8992 49.0747 66.3281 43.3612C66.6698 42.8902 66.5589 42.2594 66.1018 41.944ZM54.2262 34.969C53.9999 35.8086 53.0369 37.4879 50.3653 40.0027C51.8431 36.9636 53.4318 35.4933 54.2262 34.969Z" fill="#D4AF37"/>
                            <path d="M110.985 22.7018C110.248 21.7556 106.951 21.1781 71.6706 21.9154C72.8067 17.6681 73.8274 13.8386 74.7371 10.7463C74.9102 10.1688 74.5685 9.64455 74.0004 9.48891C73.4324 9.32917 72.8067 9.64454 72.638 10.1688C71.6706 13.47 70.5922 17.4551 69.3984 21.9645C66.2742 22.0178 62.866 22.071 59.1693 22.1775C54.1146 22.2799 50.1384 22.3864 48.6029 22.3864C47.9771 22.3864 47.4668 22.8574 47.4668 23.3817C47.4668 23.9592 47.9771 24.4302 48.6029 24.4302C50.196 24.3769 54.1723 24.3278 59.227 24.168C61.8985 24.1148 65.1914 24.0656 68.8881 23.9592C66.4429 33.5022 63.6604 44.9334 61.1619 56.1025C59.3424 64.2817 57.8646 71.3592 56.8971 76.5526C56.3868 79.2762 56.0451 81.4265 55.8764 82.8969C55.6501 84.8874 55.5347 86.0424 56.6131 86.4069C56.7862 86.4069 56.8971 86.4601 57.0702 86.4601C58.0332 86.4601 58.548 85.2028 59.0007 84.0478C59.227 83.5235 58.943 82.946 58.3749 82.7371C58.264 82.7371 58.2063 82.6839 58.0909 82.6839C58.6589 78.5963 60.3631 69.4178 63.6604 54.9475C66.1011 43.9873 68.7727 33.0312 71.1602 23.9059C86.7813 23.5905 107.067 23.3284 109.396 24.0656C109.791 24.3769 110.302 24.3769 110.759 24.1148C111.211 23.8035 111.327 23.1728 110.985 22.7018Z" fill="#D4AF37"/>
                            <path d="M89.3952 41.944C88.8849 41.6287 88.2015 41.7352 87.8642 42.2062C83.5995 47.7109 80.1335 51.1718 76.7253 53.4285C75.0212 54.5303 73.3748 54.7391 72.2964 54.006C71.613 53.5309 69.5094 51.4339 71.9547 44.0943C77.4664 39.9003 80.4752 35.9151 79.6809 33.8181C79.3969 33.1874 78.7134 32.7696 77.9768 32.7696C75.7046 32.8228 72.2387 36.4394 69.9665 43.2014C67.1796 51.5404 69.4562 54.5794 71.0449 55.6279C71.8393 56.2054 72.749 56.4675 73.7742 56.4675C75.0789 56.4675 76.5567 55.9965 77.9768 55.0545C81.6113 52.6421 85.1926 49.0747 89.6216 43.3612C89.9633 42.8902 89.8523 42.2594 89.3952 41.944ZM77.5197 34.969C77.2933 35.8086 76.3303 37.4879 73.6588 40.0027C75.1366 36.9636 76.7253 35.4933 77.5197 34.969Z" fill="#D4AF37"/>
                            <path d="M111.268 41.7883C110.7 41.5262 110.021 41.7351 109.791 42.2594C103.258 54.948 97.0674 61.452 95.7005 61.239C95.5896 61.1899 93.6014 59.4041 100.019 41.2108C100.192 40.7398 100.587 39.6381 99.6812 39.0606C98.8247 38.4298 97.8617 39.0073 96.2686 40.0026C94.5644 41.002 92.2346 42.415 90.4195 42.2061C96.2153 32.9784 95.6473 30.9346 94.3381 30.1482C92.2923 29.0465 89.3412 32.2453 87.9743 34.0802C85.1918 38.0653 85.2495 41.6819 88.2006 43.5167C91.2139 45.4581 95.1325 43.099 97.4623 41.6819C97.52 41.6286 97.52 41.6286 97.5777 41.5754C95.3633 48.0262 93.9432 53.1131 93.4284 56.6272C92.8026 60.5059 93.2597 62.5496 94.8485 63.1271C95.1325 63.1804 95.3633 63.2336 95.6473 63.2336C100.192 63.2336 108.086 50.3321 111.779 43.1522C112.009 42.628 111.779 41.9972 111.268 41.7883ZM88.316 38.1677C89.1104 35.3375 91.7819 32.7163 92.9757 32.0855C92.8603 32.9252 92.2346 35.2843 88.6 41.1044C88.2006 40.5269 87.9166 39.6381 88.316 38.1677Z" fill="#D4AF37"/>
                            <path d="M154.164 42.2055C153.707 41.8368 153.028 41.8901 152.629 42.312C150.299 44.8267 147.175 46.0841 144.618 45.4575C142.515 44.9332 140.984 43.0451 140.416 40.2149C140.3 39.7398 139.79 39.4286 139.28 39.4286C138.765 39.4286 138.312 39.7931 138.255 40.2641C137.061 48.132 130.302 57.5153 127.062 58.5147C126.663 58.6171 126.552 58.5639 126.552 58.5147C126.268 58.3017 124.338 55.8402 130.36 39.3221C130.528 38.7978 130.244 38.2203 129.676 38.0647C129.108 37.8558 128.483 38.1671 128.256 38.6913C121.666 56.8887 124.165 59.1946 124.959 59.9277C125.301 60.1899 125.869 60.6117 126.721 60.6117C127.005 60.6117 127.346 60.5585 127.746 60.3987C129.845 59.7721 132.685 56.9911 135.246 53.0592C137.176 50.1225 138.654 46.977 139.564 44.0404C140.642 45.7729 142.173 46.9238 144.05 47.3989C147.401 48.1852 151.377 46.7149 154.275 43.6226C154.674 43.2007 154.617 42.5741 154.164 42.2055Z" fill="#D4AF37"/>
                            <path d="M175.807 41.9968C175.297 41.7879 174.614 41.9968 174.387 42.4678C170.069 50.5937 166.834 53.1659 165.299 52.9037C164.673 52.7973 162.627 51.6955 162.117 42.521C162.117 42.1033 161.775 41.7347 161.38 41.6282C160.923 41.5258 160.413 41.6282 160.186 41.9968C159.845 42.3654 159.503 42.7832 159.161 43.2542C157.741 45.0358 155.868 47.4482 153.596 49.705C153.255 50.0695 152.971 50.2825 152.797 50.3849C152.402 48.55 154.502 41.5258 157.857 39.3223C158.82 38.6915 160.129 38.2205 161.891 40.1087C162.285 40.5264 162.969 40.5797 163.422 40.2151C163.879 39.8998 163.936 39.2158 163.595 38.798C161.433 36.4921 159.388 36.5413 158.025 36.9631C153.65 38.3803 150.698 46.1376 150.583 49.705C150.525 51.1712 150.982 52.1174 151.892 52.4327C153.312 52.957 154.732 51.5399 155.185 51.0689C157.115 49.1275 158.877 47.0305 160.129 45.4044C160.754 51.3842 162.285 54.37 164.846 54.8943C165.072 54.8943 165.299 54.9475 165.525 54.9475C169.39 54.9475 173.535 48.7097 176.322 43.3607C176.606 42.8364 176.376 42.2589 175.807 41.9968Z" fill="#D4AF37"/>
                            <path d="M195.639 41.9448C195.124 41.6827 194.445 41.8383 194.161 42.3667C192.795 44.5129 189.218 50.3329 187.172 50.124C186.772 50.0708 185.636 49.5465 184.5 45.8767C183.706 43.3087 182.628 40.8963 180.524 40.7898C178.989 40.6874 177.284 41.7892 174.671 46.2986C175.354 44.0419 176.095 41.7892 176.663 39.9543C176.889 39.2703 177.058 38.6928 177.231 38.1194C177.4 37.5952 177.058 37.0177 176.49 36.8579C175.922 36.7023 175.296 37.0177 175.128 37.5952C174.955 38.1194 174.786 38.7461 174.56 39.3768C173.082 44.0419 170.867 51.1193 170.299 55.4198C170.242 55.8908 170.583 56.3659 171.094 56.4683C171.209 56.5216 171.262 56.5216 171.378 56.5216C171.83 56.5216 172.23 56.2594 172.398 55.8908C177.742 43.6241 179.898 42.7845 180.413 42.7845C180.524 42.7845 181.318 42.9933 182.401 46.4542C183.537 50.0708 185.011 51.9098 186.946 52.1187C189.843 52.434 192.457 49.1288 196.034 43.362C196.376 42.8377 196.15 42.2602 195.639 41.9448Z" fill="#D4AF37"/>
                            <path d="M233.988 9.85364C233.588 9.53827 233.078 9.43588 232.567 9.53827C230.122 10.2755 225.746 21.2316 221.544 39.2692C221.429 39.5846 221.26 39.8467 221.087 40.1621C220.803 38.1183 219.329 37.5408 218.815 37.3811C216.374 36.7012 212.509 38.745 209.841 43.9875C207.796 47.9235 207.396 53.0596 209.952 54.4235C211.204 55.1034 213.361 55.001 216.485 50.8069C217.852 49.0212 219.045 47.2928 220.181 45.6135C219.556 48.6034 218.93 51.749 218.362 55.0542C217.284 60.9275 216.485 65.8547 216.032 69.418C215.122 76.393 215.579 77.3391 216.716 77.6504C216.827 77.7037 217 77.7037 217.111 77.7037C218.136 77.7037 218.815 76.4995 219.156 75.7131C219.44 75.2421 219.214 74.6114 218.646 74.4025C218.362 74.2428 218.02 74.2428 217.736 74.3492C217.852 72.0925 218.42 66.9564 220.519 55.4187C221.544 49.6519 222.622 44.5118 223.647 40.0024C227.908 32.5563 230.064 26.2653 231.826 21.2849C232.053 20.6541 232.279 20.0807 232.452 19.5564C235.461 11.2175 234.325 10.2223 233.988 9.85364ZM214.67 49.6519C212.509 52.5353 211.315 52.7975 211.031 52.6951C210.179 52.22 209.895 48.6034 211.83 44.8272C213.76 41.0509 216.374 39.2692 217.794 39.2692C217.963 39.2692 218.078 39.2692 218.193 39.3225C219.099 39.5314 218.93 41.0509 218.872 41.4728C218.815 41.9438 219.099 42.4148 219.613 42.5745C218.193 44.8272 216.542 47.1863 214.67 49.6519ZM230.406 18.9257C230.18 19.45 229.954 20.0275 229.78 20.6541C228.76 23.4884 227.624 26.6871 226.088 30.3037C228.476 21.6002 230.633 16.1447 231.995 13.421C231.769 14.6784 231.258 16.4601 230.406 18.9257Z" fill="#D4AF37"/>
                            <path d="M246.313 41.944C245.803 41.6287 245.119 41.7352 244.782 42.2062C240.517 47.7109 237.052 51.1718 233.643 53.4285C231.939 54.5303 230.293 54.7391 229.214 54.006C228.531 53.5309 226.427 51.4339 228.873 44.0943C234.384 39.9003 237.393 35.9151 236.599 33.8181C236.315 33.1874 235.631 32.7696 234.895 32.7696C232.623 32.8228 229.157 36.4394 226.884 43.2014C224.098 51.5404 226.374 54.5794 227.963 55.6279C228.757 56.2054 229.667 56.4675 230.692 56.4675C231.997 56.4675 233.475 55.9965 234.895 55.0545C238.529 52.6421 242.111 49.0747 246.54 43.3612C246.881 42.8902 246.77 42.2594 246.313 41.944ZM234.438 34.969C234.211 35.8086 233.248 37.4879 230.577 40.0027C232.055 36.9636 233.643 35.4933 234.438 34.969Z" fill="#D4AF37"/>
                            <path d="M266.087 41.9448C265.572 41.6827 264.893 41.8383 264.609 42.3667C263.242 44.5129 259.665 50.3329 257.62 50.124C257.22 50.0708 256.084 49.5465 254.948 45.8767C254.154 43.3087 253.075 40.8963 250.972 40.7898C249.436 40.6874 247.732 41.7892 245.118 46.2986C245.802 44.0419 246.543 41.7892 247.111 39.9543C247.337 39.2703 247.506 38.6928 247.679 38.1194C247.848 37.5952 247.506 37.0177 246.938 36.8579C246.37 36.7023 245.744 37.0177 245.575 37.5952C245.402 38.1194 245.234 38.7461 245.007 39.3768C243.53 44.0419 241.315 51.1193 240.747 55.4198C240.689 55.8908 241.031 56.3659 241.541 56.4683C241.657 56.5216 241.71 56.5216 241.825 56.5216C242.278 56.5216 242.678 56.2594 242.846 55.8908C248.189 43.6241 250.346 42.7845 250.861 42.7845C250.972 42.7845 251.766 42.9933 252.849 46.4542C253.985 50.0708 255.458 51.9098 257.393 52.1187C260.291 52.434 262.905 49.1288 266.482 43.362C266.824 42.8377 266.597 42.2602 266.087 41.9448Z" fill="#D4AF37"/>
                            <path d="M327.047 32.1916C324.886 29.7259 321.934 28.1532 318.353 27.42C318.752 26.9982 319.094 26.5804 319.431 26.2118C323.07 21.7024 328.298 13.261 322.613 6.96999C318.863 2.77595 311.195 0.994303 303.469 2.04281C303.469 1.93632 303.526 1.88308 303.526 1.78068C303.637 1.25643 303.242 0.732176 302.617 0.625686C302.049 0.519197 301.481 0.887813 301.365 1.46531C301.307 1.78068 301.254 2.09196 301.197 2.40733C298.982 2.87834 296.821 3.56233 294.717 4.50435C285.402 8.69839 281.368 16.4598 283.583 25.8473C283.698 26.3715 284.324 26.736 284.892 26.5804C285.46 26.4739 285.855 25.9496 285.744 25.3762C283.698 17.0373 287.333 10.0623 295.685 6.29009C297.331 5.55286 298.982 5.02861 300.739 4.61084C299.603 9.95988 297.957 17.5083 296.084 26.0029C295.285 29.6727 294.549 33.0844 293.812 36.2791C293.071 37.3809 292.503 38.5891 292.161 39.8465C291.877 40.8418 292.277 41.4193 292.618 41.7346C284.04 81.324 284.493 83.2613 286.312 83.7856C286.423 83.8388 286.596 83.8388 286.707 83.8388C287.79 83.8388 288.584 82.5282 289.778 79.8537C290.004 79.3294 289.72 78.7519 289.152 78.543C288.584 78.3342 287.959 78.543 287.732 79.0673C287.675 79.2762 287.559 79.4359 287.501 79.5915C288.127 73.2472 291.482 57.3599 294.775 42.1524C299.55 41.6281 310.174 35.3371 316.649 29.2017C320.284 29.6235 323.239 31.0366 325.343 33.4489C329.261 37.9584 329.603 45.2488 326.195 52.4327C320.967 63.4953 309.038 70.6792 294.207 71.6745C293.581 71.7277 293.129 72.1987 293.186 72.7762C293.244 73.3005 293.697 73.7183 294.265 73.7183C294.322 73.7183 294.322 73.7183 294.38 73.7183C310.001 72.6697 322.671 65.0148 328.241 53.2191C331.933 45.3512 331.476 37.2785 327.047 32.1916ZM295.232 40.0554C295.458 39.0069 295.685 38.0116 295.911 36.9631C298.809 32.7691 304.263 30.4099 309.091 29.517C310.742 29.2549 312.273 29.0993 313.751 29.046C307.276 34.7596 298.583 39.2157 295.232 40.0554ZM315.797 27.1046C313.582 26.949 311.195 27.1046 308.639 27.5757C303.868 28.4153 299.776 30.3034 296.763 32.9247C297.274 30.672 297.788 28.4685 298.241 26.4248C300.229 17.4551 301.933 9.53801 303.069 4.13983C310.227 3.03808 317.559 4.50435 320.909 8.22738C324.433 12.1593 323.239 18.0858 317.67 25.0076C317.102 25.6875 316.48 26.4248 315.797 27.1046Z" fill="#D4AF37"/>
                            <path d="M354.599 41.944C354.089 41.6287 353.406 41.7352 353.068 42.2062C348.804 47.7109 345.338 51.1718 341.929 53.4285C340.225 54.5303 338.579 54.7391 337.5 54.006C336.817 53.5309 334.714 51.4339 337.159 44.0943C342.671 39.9003 345.679 35.9151 344.885 33.8181C344.601 33.1874 343.918 32.7696 343.181 32.7696C340.909 32.8228 337.443 36.4394 335.171 43.2014C332.384 51.5404 334.66 54.5794 336.249 55.6279C337.043 56.2054 337.953 56.4675 338.978 56.4675C340.283 56.4675 341.761 55.9965 343.181 55.0545C346.815 52.6421 350.397 49.0747 354.826 43.3612C355.167 42.8902 355.056 42.2594 354.599 41.944ZM342.724 34.969C342.497 35.8086 341.534 37.4879 338.863 40.0027C340.341 36.9636 341.929 35.4933 342.724 34.969Z" fill="#D4AF37"/>
                            <path d="M376.472 41.7883C375.904 41.5262 375.225 41.7351 374.995 42.2594C368.462 54.948 362.271 61.452 360.905 61.239C360.794 61.1899 358.806 59.4041 365.223 41.2108C365.396 40.7398 365.791 39.6381 364.885 39.0606C364.029 38.4298 363.066 39.0073 361.473 40.0026C359.769 41.002 357.439 42.415 355.624 42.2061C361.419 32.9784 360.851 30.9346 359.542 30.1482C357.496 29.0465 354.545 32.2453 353.178 34.0802C350.396 38.0653 350.454 41.6819 353.405 43.5167C356.418 45.4581 360.337 43.099 362.666 41.6819C362.724 41.6286 362.724 41.6286 362.782 41.5754C360.567 48.0262 359.147 53.1131 358.632 56.6272C358.007 60.5059 358.464 62.5496 360.053 63.1271C360.337 63.1804 360.567 63.2336 360.851 63.2336C365.396 63.2336 373.291 50.3321 376.983 43.1522C377.214 42.628 376.983 41.9972 376.472 41.7883ZM353.52 38.1677C354.314 35.3375 356.986 32.7163 358.18 32.0855C358.064 32.9252 357.439 35.2843 353.804 41.1044C353.405 40.5269 353.121 39.6381 353.52 38.1677Z" fill="#D4AF37"/>
                            <path d="M399.821 42.0501C399.484 41.575 398.801 41.4726 398.348 41.7347C394.367 44.0938 389.255 47.1861 383.974 51.1713C384.542 47.5547 385.11 43.7252 385.678 39.6377C385.731 39.1134 385.394 38.6916 384.937 38.5359C384.427 38.3803 383.859 38.5892 383.632 39.0069C382.665 40.4773 379.993 44.2495 377.779 46.9772C376.869 48.0258 376.359 48.4476 376.075 48.6033C375.507 46.924 377.268 39.4288 380.845 36.4922C382.27 35.2839 383.575 35.2839 384.995 36.4389C385.447 36.8034 386.131 36.8034 386.53 36.3857C386.925 35.9679 386.872 35.3372 386.472 34.9685C384.2 33.0845 382.154 33.3958 380.845 34.0265C376.243 36.1235 373.461 44.827 373.86 48.3411C373.971 49.9139 374.77 50.4914 375.391 50.647C376.927 51.0156 378.404 49.5453 379.483 48.1855C380.619 46.8216 381.813 45.2488 382.891 43.8317C382.438 47.137 381.928 50.2293 381.418 53.1659C375.338 58.0398 369.258 64.1753 364.656 71.9367C361.19 77.7035 360.054 82.5815 359.712 85.6206C359.26 89.6057 359.881 92.911 361.474 94.6926C362.326 95.6879 363.405 96.2121 364.598 96.2121C364.94 96.2121 365.335 96.163 365.735 96.0565C371.189 94.6394 378.347 82.6839 383.406 54.2144C389.313 49.5453 395.108 46.0844 399.484 43.4631C399.994 43.1518 400.163 42.5211 399.821 42.0501ZM365.166 94.1151C364.372 94.3281 363.746 94.1151 363.178 93.4352C361.017 90.9696 360.68 82.7372 366.529 72.932C370.505 66.2723 375.622 60.8208 380.792 56.3647C375.622 83.8389 368.801 93.1731 365.166 94.1151Z" fill="#D4AF37"/>
                            </svg>