<?xml version="1.0" encoding="utf-8"?>
<svg version="1.1" id="Design" xmlns="http://www.w3.org/2000/svg" xmlns:xlink="http://www.w3.org/1999/xlink" x="0px" y="0px" style="enable-background:new 0 0 1000 800;" xml:space="preserve" viewBox="57.96 157.15 884.08 485.72"> 
<style type="text/css">
 	.st0{fill:url(#SVGID_1_);} 	
	.st1{fill:url(#SVGID_00000026852343119398426910000008710766396264164282_);} 	
	.st2{fill:#6D6D6E;} 	
	.st3{fill:#CAA64C;} 
</style> 
<g id="Design_00000104664694914510938400000005665971696475672501_"> 	
<g id="Icon"> 		<linearGradient id="SVGID_1_" gradientUnits="userSpaceOnUse" x1="706.3763" y1="320.0549" x2="356.4564" y2="556.5749"> 			<stop offset="0" style="stop-color:#6E6D6E"></stop> 			<stop offset="0.0807" style="stop-color:#747374"></stop> 			<stop offset="0.1885" style="stop-color:#858485"></stop> 			<stop offset="0.3116" style="stop-color:#A0A0A1"></stop> 			<stop offset="0.445" style="stop-color:#C6C6C7"></stop> 			<stop offset="0.5168" style="stop-color:#DEDEDF"></stop> 			<stop offset="0.5344" style="stop-color:#D6D6D7"></stop> 			<stop offset="0.6319" style="stop-color:#B0B0B1"></stop> 			<stop offset="0.7286" style="stop-color:#929293"></stop> 			<stop offset="0.8232" style="stop-color:#7D7D7D"></stop> 			<stop offset="0.9148" style="stop-color:#707070"></stop> 			<stop offset="1" style="stop-color:#6C6C6C"></stop> 		</linearGradient> 		<polygon className="st0" points="649.86,344.34 599.87,482.22 383.31,482.22 399.62,437.22 568.32,437.22 601.99,344.34 		"></polygon> 		 			<linearGradient id="SVGID_00000134220205413558752260000001487134606769131967_" gradientUnits="userSpaceOnUse" x1="747.8163" y1="108.6872" x2="284.4963" y2="426.2072"> 			<stop offset="0" style="stop-color:#C19841"></stop> 			<stop offset="0.1499" style="stop-color:#C49C44"></stop> 			<stop offset="0.2944" style="stop-color:#CBA74D"></stop> 			<stop offset="0.4363" style="stop-color:#D8BB5B"></stop> 			<stop offset="0.4944" style="stop-color:#DFC563"></stop> 			<stop offset="0.6798" style="stop-color:#CEAC4D"></stop> 			<stop offset="0.8672" style="stop-color:#C19A3C"></stop> 			<stop offset="1" style="stop-color:#BC9336"></stop> 		</linearGradient> 		<path style="fill:url(#SVGID_00000134220205413558752260000001487134606769131967_);" d="M442.44,157.15L324.59,482.22h47.87 			l16.32-45h-0.01l37.39-103.14h227.42l16.31-45l47.83-131.93H442.44z M622.03,289.08H442.48l31.51-86.93h179.55L622.03,289.08z"></path> 	</g> 	
<g id="Text"> 		
	<g> 			
		<g> 				
			<path className="st2" d="M133.6,516.47l-9.34,0.04c-0.31,0-0.52,0.1-0.63,0.29c-7.1,12.51-19.45,34.23-27.55,48.52l-27.56-48.45 					c-0.15-0.26-0.42-0.38-0.83-0.38l-9.43-0.01c-0.2,0-0.35,0.13-0.28,0.26l32.31,59.06c0.12,0.21,0.43,0.36,0.77,0.36l9.98-0.01 					c0.38,0,0.63-0.12,0.74-0.35l32.25-58.93C134.15,516.69,133.93,516.47,133.6,516.47z"></path>

		</g> 			
		<path className="st2" d="M411.21,517.59c-1.34-0.42-3.52-0.61-6.54-0.61c-19.42,0.07-38.95,0.07-58.04,0.02c-0.01,0-0.03,0-0.04,0 				v58.71c0.01,0,0.02,0,0.03,0c18.93-0.05,39.16-0.06,60.14-0.01c0.01,0,0.01,0,0.02,0c4.22,0,8.61-1.91,8.66-5.11 				c0.09-6.59,0.13-22.47,0.11-47.21C415.56,520.31,414.22,518.53,411.21,517.59z M406.11,533.18L406,558.25 				c0,1.74-1.95,3.11-4.44,3.11h-40.91c-2.45,0-4.44-1.39-4.44-3.11l0.11-25.07c0-1.74,1.95-3.11,4.44-3.11h40.91 				C404.16,530.06,406.11,531.43,406.11,533.18L406.11,533.18z"></path> 			
		<path className="st2" d="M698.31,573.31c0.92-0.93,1.4-2.1,1.39-3.39c-0.07-6.45-0.08-12.93-0.04-19.26c0.01-1.36-1.18-2.66-3.11-3.4 				c-0.4-0.15-0.61-0.39-0.63-0.69c-0.01-0.3,0.17-0.54,0.54-0.72c2.23-1.07,3.26-2.41,3.24-4.23c-0.07-6.46-0.08-12.92-0.03-19.22 				c0.01-1.19-0.39-2.2-1.19-3c-1.61-1.62-4.8-2.49-9.3-2.45c-21.19,0.07-41.99,0.08-61.82,0.03v58.66 				c20.47,0.01,41.64,0.01,63.59,0.02C694.19,575.68,696.8,574.84,698.31,573.31z M637.42,533.07c0-1.68,1.98-3.01,4.5-3.01h43.21 				c2.52,0,4.5,1.33,4.5,3.03v0.01l-0.11,4.57c0,1.68-1.98,3.01-4.5,3.01h-43.21c-2.52,0-4.5-1.33-4.5-3.02L637.42,533.07z 				 M689.62,558.19c-0.01,1.73-1.97,2.94-4.76,2.94c0,0,0,0,0,0l-42.82,0.19c-1.6,0-3.08-0.53-3.96-1.41 				c-0.52-0.52-0.79-1.14-0.79-1.78l0.02-4.43c0.01-1.78,2.1-3.18,4.76-3.18l42.82,0.05c1.6,0,3.08,0.53,3.95,1.41 				c0.52,0.52,0.79,1.14,0.79,1.78L689.62,558.19z"></path> 			
		<path className="st2" d="M933.55,557.95c-0.01,1.45-0.68,3.88-5.11,3.89c-6.85,0.01-13.93,0.01-21.24,0.01s-14.84,0-22.6-0.01 				c-1.63,0-3.16-0.56-4.1-1.51c-0.63-0.64-0.96-1.4-0.96-2.2c0.05-9.42,0.05-13.21,0-22.51l0-0.05c-0.01-1.94-0.02-3.47,1.07-4.56 				c1.02-1.03,2.74-1.42,6.13-1.42l0.08,0c10.51,0.02,21.68,0.03,33.18,0.03c6.18,0,12.43,0,18.76-0.01l0.02-12.1 				c-11.15,0.01-22.48,0.02-33.97,0.02c-8.46,0-17.01,0-25.66-0.01c-3.05,0-5.4,0.75-6.81,2.17c-0.93,0.93-1.39,2.1-1.38,3.47 				c0.1,16.95,0.11,32.7,0.04,46.81c-0.01,1.12,0.4,2.09,1.2,2.9c1.48,1.48,4.25,2.33,7.62,2.33c12.74-0.03,25.54-0.04,38.08-0.04 				c8.15,0,16.19,0.01,24.12,0.02l0.02-29.89l-8.49-0.01C933.57,550.06,933.57,552.39,933.55,557.95z"></path> 			
		<path className="st2" d="M203.29,516.98c-0.02,0-0.03,0-0.05,0c-17.17,0.04-34.39,0.06-51.65,0.05c-5.11,0-8.16,2.27-8.16,6.07 				c0.03,18.14,0.05,35.66,0.06,52.58c0.01,0,0.02,0,0.02,0h9.45c-0.01-5.39-0.01-15.29,0-20.86c0.01-2.72,1.44-4.1,4.23-4.1 				l16.7-0.01c8.46,0,16.58-0.01,24.6,0c2.64,0.01,4.34,1.12,4.34,2.83c0.01,5.68-0.01,15.97-0.04,22.12c0.02,0,0.04,0.01,0.07,0.01 				l9.38-0.01c0.21-17.26,0.21-35.18,0.02-53.28C212.23,519,208.88,516.98,203.29,516.98z M202.82,537.24 				c-0.01,1.79-2.01,3.19-4.57,3.19c0,0,0,0,0,0l-40.71-0.05c-1.5,0-2.89-0.51-3.74-1.36c-0.54-0.54-0.82-1.17-0.82-1.84l0.03-3.96 				c0.01-1.79,2.01-3.19,4.57-3.19c0,0,0,0,0,0l40.71,0.05c1.5,0,2.89,0.51,3.74,1.36c0.54,0.54,0.82,1.17,0.82,1.84L202.82,537.24z 				"></path> 			
		<path className="st2" d="M285.88,517.5c-12.72,0.01-26.09,0.01-40.11,0.01l-15.66,0c-5.36,0-8.56,1.89-8.56,5.04 				c-0.03,18.62-0.03,36.31,0,52.61l9.22,0c-0.04-12.41,0.02-22.8,0.07-32.85c0.02-3.08,0.03-6.14,0.05-9.22 				c0.01-2.3,2.86-3.53,5.53-3.53c7.02-0.01,14.15-0.01,21.39-0.01c7.24,0,14.58,0,22.03,0.01c2.99,0.01,5.33,1.63,5.33,3.69 				l-0.12,41.92l9.16,0.01c-0.03-19.19-0.04-36.51-0.02-52.92c0-0.91-0.36-1.73-1.09-2.46c-1.43-1.44-4.12-2.29-7.19-2.29H285.88z"></path> 			
		<path className="st2" d="M569.59,517.5c-12.72,0.01-26.09,0.01-40.11,0.01l-15.66,0c-5.36,0-8.56,1.89-8.56,5.04 				c-0.03,18.62-0.03,36.31,0,52.61l9.22,0c-0.04-12.41,0.02-22.79,0.07-32.84c0.02-3.09,0.03-6.15,0.05-9.23 				c0.01-2.3,2.86-3.53,5.53-3.53c7.02-0.01,14.15-0.01,21.39-0.01c7.24,0,14.58,0,22.03,0.01c2.99,0.01,5.33,1.63,5.33,3.69 				l-0.12,41.92l9.16,0.01c-0.03-19.22-0.04-36.53-0.02-52.92c0-0.91-0.36-1.73-1.09-2.46c-1.43-1.44-4.12-2.29-7.19-2.29H569.59z"></path> 			
		<path className="st2" d="M428.3,519.28c-0.33,0-0.63,0.12-0.84,0.33c-0.11,0.11-0.24,0.3-0.24,0.56c0.04,14.85,0.05,39.95,0.01,55.95 				c0,0.26,0.13,0.45,0.24,0.56c0.21,0.21,0.51,0.33,0.84,0.33c11.31-0.03,26.22-0.05,40.91-0.05c10.69,0,20.59,0.01,27.93,0.03 				l-0.02-13.56c-15.04,0.14-37.09,0.23-56.34,0.23h-0.99c-1.7,0-3.08-1.29-3.08-2.88c-0.01-2.51,0-3.11,0.02-4.52l0.01-1.34 				c0.01-1.58,1.4-2.87,3.09-2.87h2.25c9.44-0.03,21.32-0.04,34.37-0.04c7.23,0,14.31,0,20.75,0.01l0.04-8.71 				c-5.39,0.01-11.9,0.01-18.78,0.01c-14.33,0-28.77-0.01-38.64-0.04c-1.7,0-3.08-1.3-3.08-2.88c0-1.65,0.03-2.49,0.06-3.29 				c0.03-0.73,0.06-1.49,0.06-2.87c0-1.59,1.39-2.88,3.09-2.88h57.3l-0.05-12.06c-7.97,0.02-18.61,0.03-30.01,0.03 				C452.88,519.32,439.07,519.31,428.3,519.28L428.3,519.28z"></path> 			
		<path className="st2" d="M708.19,517.49c-0.33,0-0.63,0.12-0.84,0.33c-0.11,0.11-0.24,0.3-0.24,0.56 				c0.04,14.85,0.05,39.95,0.01,55.95c0,0.26,0.13,0.45,0.24,0.56c0.21,0.21,0.51,0.33,0.84,0.33c11.31-0.03,26.23-0.05,40.92-0.05 				c10.68,0,20.58,0.01,27.92,0.03l-0.02-13.56c-15.04,0.14-37.09,0.23-56.33,0.23l-1,0c-1.7,0-3.08-1.29-3.08-2.88 				c-0.01-2.51,0-3.11,0.02-4.52l0.01-1.34c0.01-1.58,1.4-2.87,3.09-2.87h2.25c9.44-0.03,21.32-0.04,34.37-0.04 				c7.23,0,14.31,0,20.75,0.01l0.04-8.71c-5.39,0.01-11.91,0.01-18.79,0.01c-14.32,0-28.76-0.01-38.63-0.04 				c-1.7,0-3.08-1.3-3.08-2.88c0-1.65,0.03-2.49,0.06-3.29c0.03-0.73,0.06-1.49,0.06-2.87c0-1.59,1.39-2.88,3.09-2.88h57.3 				l-0.05-12.06c-7.98,0.02-18.62,0.03-30.02,0.03C732.76,517.53,718.96,517.52,708.19,517.49L708.19,517.49z"></path> 			
		<path className="st2" d="M859.16,523.07c0.01-1.07-0.4-2.02-1.19-2.82c-1.55-1.55-4.46-2.44-8-2.44c-0.02,0-0.03,0-0.05,0 				c-21.92,0.05-42.66,0.06-61.65,0.03l0.03,58.66l9.78,0l0.01-17.34c0-1.39,0.77-3.05,4.46-3.05c12.31-0.01,23.62-0.01,33.92,0 				c2.56,0.01,4.18,0.84,4.82,2.48c2.63,6.67,4.97,12.64,7.01,17.89h0c0.01,0,0.07,0.02,0.2,0.02h9.88l-8.14-19.6 				c-0.08-0.2-0.06-0.42,0.05-0.6c0.14-0.22,0.4-0.36,0.7-0.37c5.31-0.17,8.22-2.28,8.19-5.95 				C859.1,541.53,859.09,532.73,859.16,523.07z M849.37,533.98l-0.14,6.56c-0.01,1.7-1.97,3.04-4.47,3.04c0,0,0,0,0,0l-42.2-0.05 				c-1.48,0-2.86-0.5-3.69-1.32c-0.51-0.51-0.77-1.11-0.77-1.74l0.14-6.57c0.01-1.7,1.97-3.04,4.47-3.04c0,0,0,0,0,0l42.2,0.05 				c1.49,0,2.86,0.5,3.69,1.32C849.11,532.74,849.37,533.35,849.37,533.98L849.37,533.98z"></path> 		
		</g> 		
		<g> 			
		<path className="st3" d="M267.39,608.39c-0.39,0.39-0.58,0.85-0.58,1.39c0.03,9.38,0.03,19.32,0,29.56c0,0.68,0.24,1.27,0.73,1.76 				c0.8,0.8,2.16,1.24,3.83,1.24c6.48-0.01,12.67-0.01,18.59-0.01c4.86,0,9.54,0,14.03,0.01l0-7.35l-27.79,0.01l-0.24,0 				c-1.56,0-3.03-0.07-3.92-0.97c-0.44-0.44-0.67-1.03-0.67-1.7c0.02-4.71,0.01-9.71-0.03-14.85c0-0.85,0.27-1.58,0.79-2.1 				c0.58-0.58,1.41-0.88,2.46-0.88c5.54-0.01,11-0.02,16.38-0.02c4.39,0,8.73,0.01,13.02,0.02l0-7.39c-2.76,0-5.47,0-8.17,0 				c-8.24,0-16.22-0.01-23.95-0.02h-0.03C269.87,607.08,268.21,607.57,267.39,608.39z"></path> 			
		<path className="st3" d="M346.14,606.58c-0.02,0-0.04,0-0.06,0c-9.7,0.02-19.51,0.01-29.44,0c-0.02,0-0.04,0-0.06,0 				c-2.45,0-4.15,0.45-5.04,1.34c-0.52,0.51-0.77,1.18-0.77,2.03c-0.01,10.97,0.01,21.94,0.03,32.89l5.56,0.01 				c0-2.73-0.01-5.39-0.01-7.99l0-0.47c0-0.74,0.21-1.33,0.62-1.74c0.81-0.81,2.21-0.81,3.82-0.81h0.5 				c7.35-0.02,14.85-0.02,22.29,0.01c1.11,0,1.92,0.37,2.41,1.08l0.01,0.01c0.19,0.29,0.29,0.6,0.29,0.91l-0.01,9l5.6,0 				c0.08-10.38,0.07-21.39-0.02-32.74C351.84,608.46,351.17,606.58,346.14,606.58z M346.28,621.43c0,1.25-1.32,2.23-3.01,2.23 				h-23.89c-1.69,0-3.01-0.98-3.01-2.23v-4.31c0-1.25,1.32-2.23,3.01-2.23h23.89c1.69,0,3.01,0.98,3.01,2.23V621.43z"></path> 			
		<path className="st3" d="M400.47,609.65c-0.1-1.83-2.12-3.06-5.03-3.06c-12.37,0-24.38,0-36.01,0l0.02,36.25l5.57,0v-9.1 				c0-1.05,1.1-1.88,2.51-1.89c6.42-0.02,12.99-0.03,19.75-0.01c1.74,0,2.83,0.58,3.26,1.72c1.1,2.96,2.27,6.05,3.5,9.28l5.7,0.01 				l-4.02-10.05c-0.09-0.21-0.08-0.42,0.02-0.6c0.11-0.2,0.32-0.33,0.62-0.37c2.73-0.43,4.08-1.54,4.13-3.4 				c0.06-2.14,0.04-4.3,0.02-6.39c-0.03-2.2-0.05-4.48,0.02-6.75C400.58,613.34,400.56,611.45,400.47,609.65z M394.84,621.37 				c0,1.18-1.24,2.1-2.83,2.1h-24.16c-1.59,0-2.83-0.92-2.83-2.1V617c0-1.18,1.24-2.1,2.83-2.1h24.16c1.59,0,2.83,0.92,2.83,2.1 				V621.37z"></path> 			
		<path className="st3" d="M445.55,614.49l29.29-0.01l0-7.37c-10.55-0.01-21.35-0.01-32.42-0.02c-1.81,0-3.32,0.47-4.13,1.29 				c-0.42,0.43-0.63,0.91-0.63,1.48c0.03,10.31,0.03,20.21,0.01,29.41c0,0.77,0.22,1.36,0.68,1.83c0.83,0.83,2.48,1.27,4.75,1.27 				h0.05c7.14-0.02,14.34-0.03,21.6-0.03c3.35,0,6.72,0,10.09,0.01l0-7.35l-10.42,0c-6.4,0-12.59,0-18.59-0.01 				c-3.32-0.01-3.58-2.04-3.59-2.67c-0.03-5.05-0.03-10.18-0.02-15.23C442.22,615.63,443.69,614.49,445.55,614.49z"></path> 			
		<path className="st3" d="M490.34,635c-2.51-0.01-3.4-1.47-3.4-2.85c0-6.08-0.01-14.42-0.02-25.04l-4.57-0.02 				c0.01,9.65,0.01,19.87-0.01,32.08c0,2.62,2.71,3.17,4.99,3.17c6.56-0.01,13.02-0.02,19.38-0.02c4.31,0,8.59,0,12.82,0.01 				l0.02-7.35c-5.38,0.01-10.7,0.01-15.95,0.01C499.14,635,494.71,635,490.34,635z"></path> 			
		<path className="st3" d="M562.45,606.6c-10.77,0-21.24,0-31.41,0.02c-1.71,0-2.97,0.4-3.76,1.19c-0.64,0.64-0.96,1.53-0.95,2.65 				c0.02,10.34,0.03,21.14,0.02,32.4l5.55,0v-8.98c0-1.12,1.17-2,2.67-2.01c8.26-0.04,16.62-0.05,24.84-0.01 				c1.45,0,2.37,1.07,2.38,2.06c0.05,3,0.05,6.01,0.01,8.94l5.55,0.01c0.13-10.68,0.12-21.82-0.01-33.13 				C567.32,607.82,565.4,606.6,562.45,606.6z M561.83,621.4c0,1.26-1.34,2.25-3.05,2.25h-23.83c-1.71,0-3.05-0.99-3.05-2.25v-4.25 				c0-1.26,1.34-2.25,3.05-2.25h23.83c1.71,0,3.05,0.99,3.05,2.25V621.4z"></path> 			
		<path className="st3" d="M612.5,624.96c0-2-2.76-2.71-5.13-2.71l-0.06,0c-4.81,0.02-9.51,0.03-14.08,0.03c-3.26,0-6.47,0-9.61-0.01 				c-3.01-0.01-3.47-1.56-3.53-2.23c-0.12-1.34-0.09-2.57,0.09-3.64c0.33-1.9,2.8-1.91,3.87-1.91c0,0,0,0,0.01,0 				c0.23,0,0.46,0,0.68,0.01c0.18,0,0.35,0.01,0.5,0.01c4.74-0.01,9.4-0.01,14-0.01c4.34,0,8.63,0,12.88,0.01l0-7.38l-5.82,0 				c-7.97-0.01-16.59-0.01-25.86-0.02c-1.92,0-3.48,0.47-4.3,1.3c-0.45,0.46-0.67,1-0.66,1.65c0.06,4.62,0.06,9.48,0,14.45 				c-0.01,0.55,0.22,1.06,0.66,1.51c0.83,0.84,2.33,1.33,4.01,1.33c4.2,0,8.31-0.01,12.32-0.01c4.01,0,7.93,0,11.76,0.01 				c0.93,0,1.82,0.19,2.65,0.55c0.71,0.31,0.9,0.86,0.95,1.16c0.18,1.05,0.21,2.32,0.07,3.75c-0.13,1.32-1.43,2.18-3.33,2.19 				c-6.37,0.01-12.7,0.01-19,0.01c-3.18,0-6.35,0-9.51,0v7.35c4.2-0.01,8.37-0.01,12.51-0.01c6.19,0,12.33,0.01,18.41,0.03l0.07,0 				c1.16,0,2.14-0.09,2.91-0.26c1.44-0.31,2.55-1.46,2.55-2.23C612.5,634.54,612.5,629.57,612.5,624.96z"></path> 			
		<path className="st3" d="M657.97,625.59c0.01-0.89-0.24-1.6-0.75-2.12c-0.77-0.78-2.17-1.19-4.06-1.19c-9.99,0-17.8-0.02-24.59-0.04 				c-1.67-0.01-3.02-1.04-3.07-2.36c-0.04-1.14-0.02-2.23,0.06-3.24c0.05-0.63,0.47-2.11,3.31-2.13c4.54-0.02,8.97-0.03,13.3-0.03 				c5.23,0,10.41,0.02,15.4,0.05l0-7.43l-12.05,0c-6.23,0-12.79,0-19.67,0.01c-1.99,0-3.4,0.41-4.19,1.21 				c-0.55,0.56-0.81,1.33-0.8,2.35c0.06,4.23,0.07,8.75,0.04,13.43c-0.01,1.39,0.58,2.25,1.94,2.77c0.85,0.33,2.05,0.49,3.56,0.49 				c4.82-0.01,9.63-0.02,14.47-0.02c2.9,0,5.82,0,8.75,0.01c3.11,0,3.65,1.29,3.71,2.06c0.07,1.1,0.08,2.22,0.01,3.34 				c-0.14,2.27-3.07,2.27-4.04,2.27l-0.06,0c-6.53-0.01-13.5-0.01-20.9-0.01l-6.87,0l0.01,7.36c4.65-0.01,9.33-0.02,14.05-0.02 				c5.79,0,11.63,0.01,17.51,0.03c0,0,0,0,0,0c1.07,0,1.93-0.11,2.6-0.32c2-0.64,2.38-1.71,2.36-3.34 				C657.93,633.99,657.92,629.7,657.97,625.59z"></path> 			
		<rect x="666.56" y="607.11" className="st3" width="4.55" height="35.24"></rect> 			<path className="st3" d="M680.33,608.25c-0.62,0.63-0.91,1.59-0.89,3.02c0.1,8.47,0.12,17.13,0.04,25.73 				c-0.01,1.14,0.04,2.15,0.15,3.01c0.16,1.31,2.11,2.34,4.43,2.34l32.65-0.01v-7.33c-3.88-0.01-7.74-0.01-11.59-0.01 				c-5.36,0-10.7,0.01-16.02,0.02l-0.13,0c-1.82,0-4.88,0-4.89-2.86c-0.01-5.06-0.01-10.1,0.01-14.98c0-0.62,0.26-2.66,3.6-2.68 				c5.78-0.01,11.3-0.02,16.57-0.02c4.32,0,8.47,0.01,12.44,0.02v-7.4l-4.97,0c-8.96,0-18.03-0.01-27.21-0.02h-0.01 				C682.51,607.08,681.1,607.48,680.33,608.25z"></path> 		
		</g> 	</g> </g> </svg>
